<?xml version="1.0" encoding="UTF-8"?>
<svg xmlns="http://www.w3.org/2000/svg" version="1.1" xmlns:xlink="http://www.w3.org/1999/xlink" viewBox="0 0 64 64">
  <!-- Generator: Adobe Illustrator 29.1.0, SVG Export Plug-In . SVG Version: 2.1.0 Build 142)  -->
  <defs>
    <style>
      .st0 {
        fill: url(#linear-gradient2);
      }

      .st1 {
        fill: #0b0b0c;
      }

      .st2 {
        fill: url(#linear-gradient9);
      }

      .st3 {
        fill: url(#linear-gradient8);
      }

      .st4 {
        fill: url(#linear-gradient1);
      }

      .st4, .st5 {
        stroke: #fff;
        stroke-miterlimit: 10;
      }

      .st6 {
        fill: url(#linear-gradient7);
      }

      .st7 {
        fill: url(#linear-gradient4);
      }

      .st8 {
        fill: none;
        stroke: url(#radial-gradient);
      }

      .st8, .st9 {
        stroke-width: 4px;
      }

      .st10 {
        fill: url(#linear-gradient5);
      }

      .st11 {
        fill: url(#linear-gradient3);
      }

      .st12 {
        display: none;
      }

      .st5 {
        fill: url(#linear-gradient);
      }

      .st13 {
        fill: url(#linear-gradient6);
      }

      .st9 {
        stroke: url(#radial-gradient1);
        stroke-linecap: round;
      }
    </style>
    <radialGradient id="radial-gradient" cx="-216.9" cy="283" fx="-216.9" fy="283" r=".6" gradientTransform="translate(8709 11349) scale(40 -40)" gradientUnits="userSpaceOnUse">
      <stop offset="0" stop-color="#ff9a3d"/>
      <stop offset="1" stop-color="#ff6a00"/>
    </radialGradient>
    <radialGradient id="radial-gradient1" cx="-210.1" cy="280.6" fx="-210.1" fy="280.6" r=".6" gradientTransform="translate(3814 7887) scale(18 -28)" gradientUnits="userSpaceOnUse">
      <stop offset="0" stop-color="#ff9a3d"/>
      <stop offset="1" stop-color="#ff6a00"/>
    </radialGradient>
    <linearGradient id="linear-gradient" x1="28.6" y1="42.1" x2="35.6" y2="19.1" gradientTransform="translate(0 66) scale(1 -1)" gradientUnits="userSpaceOnUse">
      <stop offset="0" stop-color="#895591"/>
      <stop offset=".2" stop-color="#8a5792"/>
      <stop offset=".3" stop-color="#906099"/>
      <stop offset=".4" stop-color="#996fa3"/>
      <stop offset=".5" stop-color="#a27dad"/>
      <stop offset=".5" stop-color="#946fa1"/>
      <stop offset=".6" stop-color="#7a5389"/>
      <stop offset=".7" stop-color="#653d76"/>
      <stop offset=".8" stop-color="#562d69"/>
      <stop offset=".9" stop-color="#4d2461"/>
      <stop offset="1" stop-color="#4b225f"/>
    </linearGradient>
    <linearGradient id="linear-gradient1" x1="33.7" y1="66.2" x2="30.7" y2="44.8" xlink:href="#linear-gradient"/>
    <linearGradient id="linear-gradient2" x1="1.6" y1="29.1" x2="24.8" y2="29.1" gradientTransform="translate(0 66) scale(1 -1)" gradientUnits="userSpaceOnUse">
      <stop offset="0" stop-color="#f79421"/>
      <stop offset=".6" stop-color="#f57f20"/>
      <stop offset="1" stop-color="#f15b22"/>
    </linearGradient>
    <linearGradient id="linear-gradient3" x1="6.8" y1="42.7" x2="12.3" y2="42.7" xlink:href="#linear-gradient2"/>
    <linearGradient id="linear-gradient4" x1="13.1" y1="47.1" x2="15.9" y2="47.1" xlink:href="#linear-gradient2"/>
    <linearGradient id="linear-gradient5" x1="17.7" y1="41.8" x2="20.3" y2="41.8" xlink:href="#linear-gradient2"/>
    <linearGradient id="linear-gradient6" x1="46.9" y1="54.8" x2="54.2" y2="4.5" xlink:href="#linear-gradient2"/>
    <linearGradient id="linear-gradient7" x1="52.4" y1="55.6" x2="59.6" y2="5.4" xlink:href="#linear-gradient2"/>
    <linearGradient id="linear-gradient8" x1="48.4" y1="55" x2="55.7" y2="4.8" xlink:href="#linear-gradient2"/>
    <linearGradient id="linear-gradient9" x1="43.2" y1="54.3" x2="50.4" y2="4" xlink:href="#linear-gradient2"/>
  </defs>
  <g id="Layer_1" class="st12">
    <rect class="st1" width="64" height="64" rx="14" ry="14"/>
    <circle class="st8" cx="32" cy="32" r="20"/>
    <path class="st9" d="M32,18v28M23,27h18"/>
  </g>
  <g id="Layer_2">
    <g>
      <path class="st5" d="M35.1,26.4v1c-.9,0-1.5.7-1.5,1.6,2.3.1,4.4,1.8,5.2,3.9.8,2.1.1,5.4-2,7.1s-2,1.1-3.2,1.2c0,.9.7,1.6,1.5,1.6v1h-6.1v-1c.9,0,1.5-.7,1.5-1.6-2.3-.1-4.4-1.8-5.2-3.9s-.1-5.4,2-7.1,2-1.1,3.2-1.2c0-.9-.7-1.6-1.5-1.6v-1s6.1,0,6.1,0ZM30.5,38.1v-6.1c-1.8.3-2.9,2-2.5,3.8s1.3,2.1,2.5,2.3ZM33.6,38.1c1.2-.2,2.2-1.1,2.5-2.3.4-1.8-.7-3.4-2.5-3.8v6.1Z"/>
      <polygon class="st4" points="33.9 4.3 33.9 9.7 39.2 9.7 39.2 13.3 33.9 13.3 33.9 23.9 30.2 23.9 30.2 13.3 24.9 13.3 24.9 9.7 30.2 9.7 30.2 4.3 33.9 4.3"/>
      <g>
        <path class="st0" d="M16.6,26.1c-2.7-2.3-6.2.3-4.8,3.7.9,2,2.6,4,3.5,6,.3.9-.2,1.5-1.1,1.3-.8-.2-4.9-2.1-5.5-2.6-1-.8-1.7-2-1.8-3.3-.4-4.6.5-9.9,0-14.5-.3-3.2-4.7-3.4-5.4-.2v20.7c.7,5.3,5.3,9.2,8,13.5v9h15.2v-19.4c-.3-5.8-5.2-9.7-8.2-14.2h0Z"/>
        <path class="st11" d="M8.7,16.5c.4,4.7-.3,9.9,0,14.7.3,1.9,2,2.3,3.6,3-1.3-2.7-3.6-4.6-2.2-7.9.3-.7.8-1.3,1.4-1.9v-9.8c-.4-2.1-3-3.1-4.6-1.5,1,.7,1.8,2.1,1.9,3.4h0Z"/>
        <path class="st7" d="M13.2,23.6c.9-.2,1.8-.2,2.7,0v-7.3c0-.1-.3-.8-.5-1-.5-.8-1.4-1.2-2.3-1.2,0,0,0,.2,0,.3v9.2h0Z"/>
        <path class="st10" d="M20.3,22.6c0,0-.3-.8-.4-.9-.5-.8-1.3-1.3-2.2-1.3v4.3c1,1,1.7,2.2,2.7,3.3v-5.4h0Z"/>
      </g>
      <g>
        <path class="st13" d="M62.4,16.3c-.7-3.1-5-2.8-5.3.3-.4,4.6.4,9.8,0,14.5,0,1.3-.7,2.5-1.8,3.3-.7.5-4.7,2.4-5.5,2.6-.9.2-1.5-.4-1.1-1.3,1-2,2.6-4,3.5-6,1.5-3.3-2.1-5.9-4.8-3.6-3,4.5-7.8,8.4-8.2,14.2v19.4h15.2v-9c2.5-4.1,7.7-8.6,8-13.6v-20.7h0Z"/>
        <path class="st6" d="M53.9,30.2c-.5,1.3-1.6,2.7-2.3,3.9,1.5-.5,3.3-1.1,3.7-2.9.3-4.8-.4-10.1,0-14.8,0-1.3.9-2.6,1.9-3.4-1.5-1.7-4.1-.7-4.5,1.4v10c1.7,1.5,2.1,3.6,1.3,5.7Z"/>
        <path class="st3" d="M50.8,23.6v-9.2s.1-.1,0-.3c-1.2-.1-2.6,1-2.8,2.2v7.3c.9-.2,1.8-.2,2.7,0Z"/>
        <path class="st2" d="M46.3,20.4c-.9,0-1.9.5-2.3,1.3,0,0-.4.8-.4.8v5.4c1-1,1.7-2.3,2.7-3.3v-4.3Z"/>
      </g>
    </g>
  </g>
</svg>